<svg xmlns="http://www.w3.org/2000/svg" width="100%" height="32" viewBox="0 0 313 338">
    <defs>
        <clipPath id="a">
            <path d="M82.528 67.783v42.457h31.875c28.09-34.78-2.296-55.849-31.875-42.457z"/>
        </clipPath>
    </defs>
    <path class="fil0" d="M59.51 299.765v300.7h225.746c198.945-246.323-16.26-395.547-225.746-300.7z" style="fill:#85ba38;fill-rule:evenodd" transform="translate(-57.51 -264.465)"/>
    <g transform="translate(-582.5 -444.768) scale(7.08242)" clip-path="url(#a)" style="fill-rule:evenodd">
        <path class="fil1" d="M104.205 62.819c19.052 10.384 18.666 27.545 4.298 49.672h3.831c16.518-27.191 9.88-41.175-4.833-49.842-.96.057-2.336.113-3.296.17zm-7.523 0c12.778 10.882 9.324 28.176 2.912 49.672h5.217c12.793-28.019 7.492-41.705-4.833-49.842-.96.057-2.336.113-3.296.17zm-16.258 0c-6.177 10.884.46 28.174 10.317 49.672h2.808c-7.714-27.758-.777-45.071 3.133-49.842-.96.057-15.298.113-16.258.17z" style="fill:#c1da9a"/>
        <path class="fil2" d="m111.088 99.225.96 5.024c.171.889-.181 1.066-.943.611l-4.328-2.578c.811-1.729 2.278-2.766 4.311-3.056z" style="fill:#3e5533"/>
        <path class="fil3 str0" d="m106.101 101.585-13.154-6.26c-1.208-4.156.515-6.715 3.487-6.711 6.518.008 5.686.829 7.106-2.82 1.154-2.965 3.313-4.988 5.35-4.794l1.821 17.507c-2.092.258-3.55 1.322-4.61 3.078zm1.593-21.873L93.922 61.61c-1.566.102-3.1.394-4.572.86l14.85 19.588c1.077-1.407 2.216-2.369 3.494-2.346zM90.93 94.15 79.78 78.99c.13-.363.107-.338.415-1.086.308-.747 1.016-2.208 1.635-3.217L91.902 88.3c-1.248 1.348-1.256 3.891-.972 5.85zm11.87-10.532L86.637 61.57a19.946 19.946 0 0 0-7.44 5.68l14.386 20.026c1.541-.638 3.14-.474 4.575-.364 3.065.237 3.938.548 4.642-3.292z" style="fill:#fff;stroke:#85ba38;stroke-width:.565"/>
    </g>
    <path class="fil4 str0" d="M59.51 299.765v300.7h225.746c198.945-246.323-16.26-395.547-225.746-300.7z" style="fill:none;stroke:#85ba38;stroke-width:4.00156832" transform="translate(-57.51 -264.465)"/>
</svg>
