<svg version="1.0" xmlns="http://www.w3.org/2000/svg" width="32" height="32" viewBox="0 0 512 512">
    <path d="M53.1 42c-11.9 1.8-24.8 10.8-31.4 22-5.3 9.1-5.7 13-5.7 54.7 0 40.6.4 45.1 4.8 53.8C28 186.9 43.4 197 58.1 197H63v215.7l-4.4.5c-8.9 1-17.7 7.4-22.4 16.3-2.4 4.5-2.7 6.1-2.7 15.7 0 10.4.1 10.7 3.1 14.5 6 7.5 4.5 7.3 54.2 7.3 48.9 0 48.3.1 53.9-6.3 3.8-4.4 4.6-8.1 4.1-18.4-.2-5.8-1-9.1-2.8-12.7-4.6-9-15.7-16.6-24.2-16.6H119v-26.1c0-24.5.1-26.1 1.8-25.4 8 3.4 7.3 3.4 103 3.5 92.9 0 94.2 0 96.2-2 2.6-2.6 2.6-7.2-.1-9.6-2-1.8-5.5-1.9-96.4-2.4-93.8-.5-94.4-.5-97.2-2.6-1.5-1.1-3.8-3.6-5-5.4l-2.3-3.3V126h274v212.5l-2.3 3.9c-4.1 7.4-6.4 8-29.9 8.6-17.8.4-21 .7-22.4 2.2-2.3 2.2-2.2 7.3.1 9.8 1.7 1.9 3 2 22.6 2 18.5 0 21.5-.2 26.1-2 2.9-1.1 5.4-2 5.6-2 .1 0 .2 11.6.2 25.9v25.8l-4.9.6c-9.8 1.2-18.4 7.8-22.9 17.6-2.1 4.5-2.5 7.1-2.6 14.1 0 7.6.3 9.1 2.7 13.2 1.8 3.2 4 5.3 7 6.7 4.2 2 5.7 2.1 48.6 2.1 42 0 44.4-.1 48-2 7.8-3.9 10.7-10.8 9.7-22.8-.7-8.4-2.9-14.2-7.5-19.5-4.1-4.6-14.2-9.7-19.3-9.7H448V197h5.3c13.7 0 28.8-9 36.2-21.5 5.7-9.7 5.8-10.9 6.2-51.8.3-22.9 0-40.3-.6-44.3-3-19.5-18-34.4-37.6-37.4-4.8-.7-54.6-1-155.6-.8-144.6.3-148.7.4-150.8 2.2-2.7 2.4-2.7 7-.1 9.6 2 2 3.3 2 150.8 2 102 0 150.7.3 154.8 1.1 10.3 1.9 18.3 8.1 22.8 17.8 2 4.4 2.1 6 2.1 45.1v40.5l-2.7 5.7c-3.4 7.3-9.5 13.2-16.4 15.8-5 1.8-7.7 2-30.4 2h-25v-57h11.8c10.3 0 12.1-.3 13.5-1.8 2.4-2.6 2.1-7.5-.4-9.8-2.1-1.9-6.6-1.9-174.8-2.2-123.6-.2-173.4.1-175.3.9-1.4.6-3.2 2.4-3.9 4-1 2.6-.9 3.4.8 5.7 1.9 2.6 2.4 2.7 13.9 3.2l11.9.5.3 28.3.2 28.3-26.7-.3-26.8-.3-5.4-3c-6.7-3.7-11.5-9.2-14.1-16.3-2-5.3-2.1-7.2-1.8-45.6.3-39.8.3-40.1 2.6-44.6 3.3-6.3 9.6-12.5 15.6-15.2 5-2.2 5.9-2.3 43.6-2.6 26.8-.3 38.9-.7 39.8-1.5 4-3.2 3.2-9.5-1.5-11.6-2.8-1.3-68.4-1.3-77.2-.1zm51.4 263v107.5l-13.2.3-13.3.3V196.9l13.3.3 13.2.3V305zm329.5 0v108h-27V197h27v108zM127 429.1c5.3 3 8 8.3 8 15.6 0 3.3-.5 6.4-1.2 7.1-.9.9-11.8 1.2-42.9 1.2-35.7 0-41.8-.2-42.9-1.5-.8-1-1.1-3.7-.8-8 .4-7.2 2.2-10.5 7.8-14.3 3.3-2.2 3.7-2.2 35.8-2.2 31.2 0 32.6.1 36.2 2.1zm330.7.5c4 2.9 7.3 9.9 7.3 15.4 0 8.6 3 8.1-45 7.8l-42.5-.3-.3-7.5c-.2-6.5 0-8.1 2-10.9 1.3-1.9 3.9-4.2 5.8-5.3 3.3-1.7 5.8-1.8 36.7-1.6 31.7.3 33.3.4 36 2.4z"/>
    <path d="M354.5 65.9c-10.3 4.8-14.5 17.1-9.2 27.2 5.7 10.7 19.7 13.7 29.5 6.3 8.7-6.7 9.9-20.7 2.4-28.8-5.9-6.3-15.2-8.2-22.7-4.7zm11.9 13.7c2.5 2.4 2 7.1-.8 9-5.5 3.5-11.4-3.9-7-8.7 2.1-2.3 5.7-2.5 7.8-.3zM406 66.2c-6.5 3.4-10.2 8.6-10.8 15.2-.9 11.6 5 19.6 16.5 22 6.8 1.5 16.1-3.1 20.1-9.9 1.9-3.3 2.2-5.2 2-10.7-.3-5.7-.8-7.3-3.4-10.5-3.8-4.8-10.6-8.3-15.9-8.3-2.3 0-6 1-8.5 2.2zm12.2 13.5c2.2 2 2.4 6.6.3 8.3-.8.7-2.6 1.2-4 1.2-3.4 0-5.5-1.9-5.5-5 0-5.3 5.4-8 9.2-4.5zM178.2 224.6c-2 1.4-2.2 2.3-2.2 11.5 0 8.6.3 10.2 2 11.9 2.5 2.5 6.1 2.6 9.1.1 2.2-1.8 2.4-2.6 2.4-11.4 0-7.9-.3-9.8-1.9-11.6-2.3-2.5-6.3-2.7-9.4-.5zM324.2 225.3c-1.9 2-2.2 3.5-2.2 10.9 0 7.1.3 9 2.1 11.2 2.6 3.3 6.8 3.4 9.7.3 1.9-2 2.2-3.5 2.2-11.5 0-7.9-.3-9.5-2-11.2-2.7-2.7-7.1-2.6-9.8.3zM233.6 237.1c-3.8 3-3.5 7.3.9 11.4 11.7 11.1 31 11.1 42.3 0 4.8-4.9 5.3-7.5 1.7-11-3.2-3.3-5-3.1-11.2 1.1-8.5 5.8-16 5.6-23.9-.7-4.4-3.4-6.2-3.6-9.8-.8z"/>
</svg>