<?xml version="1.0" standalone="no"?>
<!DOCTYPE svg PUBLIC "-//W3C//DTD SVG 20010904//EN"
 "http://www.w3.org/TR/2001/REC-SVG-20010904/DTD/svg10.dtd">
<svg version="1.0" xmlns="http://www.w3.org/2000/svg"
 width="512.000000pt" height="512.000000pt" viewBox="0 0 512.000000 512.000000"
 preserveAspectRatio="xMidYMid meet">

<g transform="translate(0.000000,512.000000) scale(0.100000,-0.100000)"
fill="#000000" stroke="none">
<path d="M531 4700 c-119 -18 -248 -108 -314 -220 -53 -91 -57 -130 -57 -547
0 -406 4 -451 48 -538 72 -144 226 -245 373 -245 l49 0 0 -1079 0 -1078 -44
-5 c-89 -10 -177 -74 -224 -163 -24 -45 -27 -61 -27 -157 0 -104 1 -107 31
-145 60 -75 45 -73 542 -73 489 0 483 -1 539 63 38 44 46 81 41 184 -2 58 -10
91 -28 127 -46 90 -157 166 -242 166 l-28 0 0 261 c0 245 1 261 18 254 80 -34
73 -34 1030 -35 929 0 942 0 962 20 26 26 26 72 -1 96 -20 18 -55 19 -964 24
-938 5 -944 5 -972 26 -15 11 -38 36 -50 54 l-23 33 0 1068 0 1069 1370 0
1370 0 0 -1062 0 -1063 -23 -39 c-41 -74 -64 -80 -299 -86 -178 -4 -210 -7
-224 -22 -23 -22 -22 -73 1 -98 17 -19 30 -20 226 -20 185 0 215 2 261 20 29
11 54 20 56 20 1 0 2 -116 2 -259 l0 -258 -49 -6 c-98 -12 -184 -78 -229 -176
-21 -45 -25 -71 -26 -141 0 -76 3 -91 27 -132 18 -32 40 -53 70 -67 42 -20 57
-21 486 -21 420 0 444 1 480 20 78 39 107 108 97 228 -7 84 -29 142 -75 195
-41 46 -142 97 -193 97 l-38 0 0 1080 0 1080 53 0 c137 0 288 90 362 215 57
97 58 109 62 518 3 229 0 403 -6 443 -30 195 -180 344 -376 374 -48 7 -546 10
-1556 8 -1446 -3 -1487 -4 -1508 -22 -27 -24 -27 -70 -1 -96 20 -20 33 -20
1508 -20 1020 0 1507 -3 1548 -11 103 -19 183 -81 228 -178 20 -44 21 -60 21
-451 l0 -405 -27 -57 c-34 -73 -95 -132 -164 -158 -50 -18 -77 -20 -304 -20
l-250 0 0 285 0 285 118 0 c103 0 121 3 135 18 24 26 21 75 -4 98 -21 19 -66
19 -1748 22 -1236 2 -1734 -1 -1753 -9 -14 -6 -32 -24 -39 -40 -10 -26 -9 -34
8 -57 19 -26 24 -27 139 -32 l119 -5 3 -283 2 -283 -267 3 -268 3 -54 30 c-67
37 -115 92 -141 163 -20 53 -21 72 -18 456 3 398 3 401 26 446 33 63 96 125
156 152 50 22 59 23 436 26 268 3 389 7 398 15 40 32 32 95 -15 116 -28 13
-684 13 -772 1z m514 -2630 l0 -1075 -132 -3 -133 -3 0 1081 0 1081 133 -3
132 -3 0 -1075z m3295 0 l0 -1080 -135 0 -135 0 0 1080 0 1080 135 0 135 0 0
-1080z m-3070 -1241 c53 -30 80 -83 80 -156 0 -33 -5 -64 -12 -71 -9 -9 -118
-12 -429 -12 -357 0 -418 2 -429 15 -8 10 -11 37 -8 80 4 72 22 105 78 143 33
22 37 22 358 22 312 0 326 -1 362 -21z m3307 -5 c40 -29 73 -99 73 -154 0 -86
30 -81 -450 -78 l-425 3 -3 75 c-2 65 0 81 20 109 13 19 39 42 58 53 33 17 58
18 367 16 317 -3 333 -4 360 -24z"/>
<path d="M3545 4461 c-103 -48 -145 -171 -92 -272 57 -107 197 -137 295 -63
87 67 99 207 24 288 -59 63 -152 82 -227 47z m119 -137 c25 -24 20 -71 -8 -90
-55 -35 -114 39 -70 87 21 23 57 25 78 3z"/>
<path d="M4060 4458 c-65 -34 -102 -86 -108 -152 -9 -116 50 -196 165 -220 68
-15 161 31 201 99 19 33 22 52 20 107 -3 57 -8 73 -34 105 -38 48 -106 83
-159 83 -23 0 -60 -10 -85 -22z m122 -135 c22 -20 24 -66 3 -83 -8 -7 -26 -12
-40 -12 -34 0 -55 19 -55 50 0 53 54 80 92 45z"/>
<path d="M1782 2874 c-20 -14 -22 -23 -22 -115 0 -86 3 -102 20 -119 25 -25
61 -26 91 -1 22 18 24 26 24 114 0 79 -3 98 -19 116 -23 25 -63 27 -94 5z"/>
<path d="M3242 2867 c-19 -20 -22 -35 -22 -109 0 -71 3 -90 21 -112 26 -33 68
-34 97 -3 19 20 22 35 22 115 0 79 -3 95 -20 112 -27 27 -71 26 -98 -3z"/>
<path d="M2336 2749 c-38 -30 -35 -73 9 -114 117 -111 310 -111 423 0 48 49
53 75 17 110 -32 33 -50 31 -112 -11 -85 -58 -160 -56 -239 7 -44 34 -62 36
-98 8z"/>
</g>
</svg>
